HIERARCHY
ROOT Hips
{
  OFFSET 43.0842 91.1655 101.099
  CHANNELS 6 Xposition Yposition Zposition Zrotation Xrotation Yrotation
  JOINT LeftUpLeg
  {
    OFFSET 8.64259 1.95398 -2.38835
    CHANNELS 3 Zrotation Xrotation Yrotation
    JOINT LeftLeg
    {
      OFFSET 43.7702 0 0
      CHANNELS 3 Zrotation Xrotation Yrotation
      JOINT LeftFoot
      {
        OFFSET 40.6238 0 0
        CHANNELS 3 Zrotation Xrotation Yrotation
        JOINT LeftToeBase
        {
          OFFSET 12.7242 0 0
          CHANNELS 3 Zrotation Xrotation Yrotation
          End Site
          {
            OFFSET 0 0 0
          }
        }
      }
    }
  }
  JOINT RightUpLeg
  {
    OFFSET -8.2249 1.95398 -2.59336
    CHANNELS 3 Zrotation Xrotation Yrotation
    JOINT RightLeg
    {
      OFFSET 43.5653 0 0
      CHANNELS 3 Zrotation Xrotation Yrotation
      JOINT RightFoot
      {
        OFFSET 40.6238 0 0
        CHANNELS 3 Zrotation Xrotation Yrotation
        JOINT RightToeBase
        {
          OFFSET 12.7242 0 0
          CHANNELS 3 Zrotation Xrotation Yrotation
          End Site
          {
            OFFSET 0 0 0
          }
        }
      }
    }
  }
  JOINT Spine
  {
    OFFSET 0.165834 0.87714 6.61349
    CHANNELS 3 Zrotation Xrotation Yrotation
    JOINT Spine1
    {
      OFFSET 7.38963 1.71661e-005 0
      CHANNELS 3 Zrotation Xrotation Yrotation
      JOINT Spine2
      {
        OFFSET 11.9445 1.14441e-005 0
        CHANNELS 3 Zrotation Xrotation Yrotation
        JOINT Spine3
        {
          OFFSET 14.7254 4.19617e-005 0
          CHANNELS 3 Zrotation Xrotation Yrotation
          JOINT Spine4
          {
            OFFSET 10.9679 0 0
            CHANNELS 3 Zrotation Xrotation Yrotation
            JOINT RightShoulder
            {
              OFFSET 2.46616 -1.6653 3.69651
              CHANNELS 3 Zrotation Xrotation Yrotation
              JOINT RightArm
              {
                OFFSET 13.0012 0 0
                CHANNELS 3 Zrotation Xrotation Yrotation
                JOINT RightForeArm
                {
                  OFFSET 28.7848 1.52588e-005 0
                  CHANNELS 3 Zrotation Xrotation Yrotation
                  JOINT RightHand
                  {
                    OFFSET 26.5688 1.52588e-005 0
                    CHANNELS 3 Zrotation Xrotation Yrotation
                    End Site
                    {
                      OFFSET 0 0 0
                    }
                  }
                }
              }
            }
            JOINT LeftShoulder
            {
              OFFSET 2.38034 -1.29275 -3.7523
              CHANNELS 3 Zrotation Xrotation Yrotation
              JOINT LeftArm
              {
                OFFSET 16.3182 6.10351e-005 0
                CHANNELS 3 Zrotation Xrotation Yrotation
                JOINT LeftForeArm
                {
                  OFFSET 27.0901 0 0
                  CHANNELS 3 Zrotation Xrotation Yrotation
                  JOINT LeftHand
                  {
                    OFFSET 24.5451 1.52588e-005 0
                    CHANNELS 3 Zrotation Xrotation Yrotation
                    End Site
                    {
                      OFFSET 0 0 0
                    }
                  }
                }
              }
            }
            JOINT Neck
            {
              OFFSET 5.0226 -0.0266342 0
              CHANNELS 3 Zrotation Xrotation Yrotation
              JOINT Head
              {
                OFFSET 6.69364 2.86102e-005 0
                CHANNELS 3 Zrotation Xrotation Yrotation
                End Site
                {
                  OFFSET 0 0 0
                }
              }
            }
          }
        }
      }
    }
  }
}
MOTION
Frames:	14
Frame Time:	0.0333333
80.2202 90.2558 -20.1846 96.3224 -18.0863 92.0322 -173.705 8.46599 96.5567 -38.3729 27.2499 1.01714 65.9595 9.48677 18.8061 -157.061 25.8893 -98.5278 170.354 18.1043 76.8916 -24.504 -9.40256 1.3807 58.0167 4.32222 -7.25158 29.8048 -0.0921727 -1.37126 0.439409 7.52938 -89.6207 11.8134 1.05204 0.644472 0.142702 1.07937 0.597537 -22.3934 0.809716 0.930859 -2.38075 0.809702 0.930857 91.2162 -47.877 -99.414 3.23093 25.3389 -29.2738 -22.1805 18.0567 -52.0848 -0.464299 0.638946 -2.73428 -92.6075 -44.0864 73.2302 -5.9963 19.0149 -74.2292 9.91306 15.0911 -92.8055 18.3535 2.20499 -1.25833 -30.3183 -15.4657 -5.8877 1.65354 -17.6689 -21.1602 
80.2839 90.2439 -20.1771 96.259 -17.8601 91.9427 -173.774 8.48854 96.484 -38.338 27.2816 1.04897 65.8403 9.28741 18.6568 -156.667 25.8766 -98.5054 170.378 18.2482 76.8094 -24.8494 -9.12967 1.34511 58.175 4.25915 -7.35946 29.6601 -0.0748879 -1.18529 0.403356 7.53637 -89.6082 11.798 0.986335 0.676612 0.12729 1.01515 0.632542 -22.4083 0.737425 0.941761 -2.39567 0.737381 0.941756 91.2259 -47.4032 -99.5025 3.70268 25.3922 -29.4115 -21.1994 18.5241 -52.62 -1.86885 0.261287 -3.04471 -92.3797 -44.0351 73.5766 -6.31488 18.9533 -74.4186 10.2648 15.2758 -92.7291 18.3828 2.21886 -1.57875 -29.7558 -15.5608 -5.2589 0.969697 -17.553 -21.7237 
80.3263 90.2647 -20.1499 96.1793 -17.6889 91.9074 -173.845 8.61688 96.5014 -38.39 27.3039 1.09801 65.8043 9.14825 18.711 -156.015 26.3568 -98.3056 170.265 18.2202 76.8301 -24.7845 -8.95481 1.39735 58.0829 4.29638 -7.35166 29.8986 -0.162241 -1.3272 0.441572 7.48362 -89.5471 11.9027 1.09137 0.7857 0.231953 1.1249 0.736902 -22.3035 0.804802 1.07737 -2.29089 0.804783 1.07737 91.3631 -49.024 -98.9387 1.36809 24.2598 -28.5003 -20.3721 19.7497 -52.6331 -2.88164 -0.101685 -4.14761 -92.1767 -43.4384 73.7285 -7.08952 19.3896 -74.2425 10.0097 15.7166 -92.5275 19.7849 2.41075 -2.18933 -30.9533 -15.2855 -7.09444 1.96125 -17.7098 -20.4484 
80.3848 90.2613 -20.1192 96.001 -17.5889 91.8342 -173.93 8.74898 96.4334 -38.4413 27.3084 1.13567 65.7371 8.98731 18.7788 -155.551 26.5409 -98.2141 170.299 18.361 76.8086 -24.864 -9.01822 1.40275 58.1767 4.26156 -7.59025 29.8469 -0.19738 -1.14424 0.435462 7.46152 -89.5145 11.9462 1.09479 0.849986 0.275509 1.13114 0.800971 -22.2596 0.788734 1.13971 -2.24693 0.788738 1.13971 91.4897 -49.4409 -98.6524 1.46686 24.5253 -28.9244 -20.0191 19.551 -53.0512 -2.74846 0.0275329 -3.24881 -92.2026 -43.2642 73.6373 -7.63455 19.5142 -73.8395 10.0838 15.9749 -92.5784 20.686 2.51827 -1.6936 -30.8944 -15.2006 -7.51605 2.00717 -17.6571 -20.0199 
80.4573 90.2574 -20.1107 95.8524 -17.6244 91.8101 -173.948 8.84645 96.4329 -38.4481 27.3547 1.12601 65.637 8.73554 18.5969 -155.71 25.9026 -98.4368 170.294 18.3965 76.8434 -24.6739 -8.49999 1.4361 58.2849 4.02254 -7.29649 29.6764 -0.0716088 -1.22058 0.434798 7.44889 -89.4952 11.9716 1.10261 0.887394 0.300821 1.14061 0.838 -22.2341 0.784937 1.17773 -2.22142 0.78497 1.17774 91.4044 -49.6755 -98.7359 1.4733 24.9141 -29.1433 -19.5428 19.4449 -53.5776 -2.73494 0.102099 -2.59531 -92.2407 -43.3489 73.6005 -7.85022 19.5382 -73.4224 9.88591 15.889 -92.6652 20.3874 2.48049 -1.75553 -30.5975 -14.9793 -7.50954 2.06866 -17.4078 -19.8907 
80.4879 90.2531 -20.0863 95.8722 -17.653 91.8872 -173.917 8.84031 96.5092 -38.4747 26.9712 1.15842 65.7223 8.9329 18.4092 -155.389 26.3741 -98.2629 170.35 18.4148 76.9707 -24.9637 -8.56999 1.39237 57.9654 4.36209 -7.11685 30.4096 -0.400827 -1.48976 0.437414 7.4463 -89.481 11.9698 1.1145 0.914804 0.299037 1.15365 0.864864 -22.2357 0.788038 1.20744 -2.22306 0.788013 1.20743 91.3842 -50.134 -98.6715 1.1147 24.4707 -29.4469 -19.8062 19.6557 -53.1966 -3.02143 0.0319551 -2.59906 -92.1879 -43.2713 73.6628 -8.30758 19.6609 -72.8471 10.4662 15.8171 -92.9758 19.8701 2.41529 -1.82039 -30.3602 -14.6723 -7.56601 2.1945 -17.0869 -19.5978 
80.5724 90.2287 -20.0684 95.8492 -17.8544 91.992 -173.903 8.82357 96.5652 -38.622 27.1664 1.19048 65.6341 8.76662 18.7793 -155.436 26.2026 -98.318 170.429 18.4069 77.0767 -24.8575 -8.61178 1.37811 58.1937 4.15672 -7.32524 29.9613 -0.175791 -1.39125 0.417602 7.45211 -89.4957 11.9639 1.06816 0.890349 0.293068 1.10631 0.842465 -22.2416 0.751205 1.17019 -2.22897 0.751193 1.17019 91.0987 -49.6222 -99.2189 1.42273 23.9136 -29.473 -20.0349 19.7262 -52.8884 -3.60263 -0.107569 -2.57682 -92.2329 -43.7455 73.7268 -8.13328 19.4075 -72.347 10.206 15.6316 -93.1072 18.4897 2.24464 -1.9667 -29.9721 -14.4706 -6.39308 2.13757 -16.7205 -20.0669 
80.6698 90.2122 -20.0548 95.8053 -18.0149 92.1337 -173.821 8.82043 96.7179 -38.7211 27.5489 1.18063 65.6456 8.81612 18.9919 -156.398 25.3421 -98.6722 170.445 18.4464 77.1799 -24.9593 -8.81179 1.40696 58.2821 4.04863 -7.30418 29.9059 -0.133989 -1.4185 0.436966 7.44936 -89.5183 11.9708 1.09599 0.841966 0.300041 1.13198 0.792908 -22.2351 0.792295 1.13242 -2.22246 0.792266 1.13241 91.0415 -49.2845 -99.3795 1.81812 23.9219 -29.7232 -20.1428 19.661 -52.6599 -3.776 -0.15431 -2.62205 -92.3003 -43.9031 73.6647 -7.94098 19.3731 -72.2376 9.77586 15.3867 -93.1469 18.2349 2.2041 -1.73422 -29.7086 -14.3922 -5.9651 2.2959 -16.5978 -20.1302 
80.7725 90.2109 -20.0507 95.8708 -18.0382 92.2472 -173.825 8.72523 96.78 -38.814 27.4966 1.24757 65.5708 8.63079 18.8646 -156.328 25.0126 -98.7721 170.407 18.3605 77.223 -25.0121 -9.16601 1.45125 58.2674 4.15331 -7.53595 29.9279 -0.0692374 -1.63654 0.464556 7.46926 -89.5182 11.9307 1.15069 0.836736 0.26006 1.18646 0.785262 -22.2754 0.846049 1.14388 -2.26276 0.846072 1.14387 91.1331 -49.5869 -99.1733 1.28225 23.4182 -29.6654 -19.4884 20.8043 -52.9059 -3.84346 -0.143294 -2.3483 -91.8561 -43.3601 74.2193 -8.40975 19.4311 -72.5653 9.13732 15.5967 -93.0692 19.2948 2.3284 -1.23437 -29.7442 -14.3762 -6.36435 2.6138 -16.6784 -20.0429 
80.8657 90.1704 -20.0692 95.923 -17.9965 92.3579 -173.765 8.63852 96.8454 -38.8745 27.4667 1.25302 65.6379 8.72717 18.6755 -156.497 24.7325 -98.8799 170.333 18.2876 77.2239 -25.0877 -9.88315 1.49285 58.3635 4.19694 -8.04268 29.9895 -0.136066 -1.55019 0.468419 7.48615 -89.5477 11.8974 1.14438 0.779046 0.226757 1.17756 0.727909 -22.309 0.857342 1.08695 -2.29641 0.857363 1.08695 91.3099 -49.3921 -98.9411 1.86988 23.6174 -30.2675 -19.8071 20.2445 -52.6233 -4.45739 -0.250472 -1.87972 -92.0155 -43.5521 74.0185 -8.56875 19.0118 -72.5 10.128 15.8227 -93.1974 18.6426 2.24987 -1.55215 -29.5158 -14.4353 -6.18315 2.50932 -16.6804 -20.0184 
80.9791 90.1194 -20.136 95.7399 -18.2523 92.0442 -173.759 8.73295 96.6236 -38.9071 28.1328 1.04306 65.7095 8.8049 19.6061 -157.285 24.5028 -99.0054 170.404 18.6866 77.0719 -25.4001 -10.9835 1.38688 57.9887 4.85632 -9.04275 30.9868 -0.794113 -1.31349 0.491023 7.48367 -89.5339 11.902 1.19573 0.801085 0.231342 1.22984 0.74767 -22.3046 0.899684 1.1234 -2.29195 0.899701 1.12341 91.4162 -49.0559 -98.8472 2.44812 23.8604 -30.6696 -20.3483 19.4368 -52.3312 -4.72279 -0.324403 -1.9667 -92.0595 -43.6622 73.9795 -8.31158 19.0886 -72.7019 9.56101 15.6661 -92.9602 19.7715 2.36784 0.119319 -29.3743 -14.5287 -6.03967 2.80905 -16.7987 -20.0775 
81.0576 90.0616 -20.2733 95.5644 -18.9848 91.2175 -173.655 8.56181 95.7267 -38.3554 26.1012 0.529748 66.0781 9.14303 18.8068 -155.444 26.3185 -98.3018 170.692 19.5969 76.5034 -25.8179 -11.2929 1.01768 58.181 4.51203 -9.34808 30.5904 -0.670412 -1.01186 0.520345 7.47387 -89.4437 11.9202 1.29669 0.969838 0.249599 1.33813 0.911817 -22.2858 0.945315 1.3147 -2.27312 0.945299 1.31469 91.2743 -49.276 -99.0208 2.02735 23.1813 -30.6637 -20.5999 19.5811 -52.0836 -4.52288 -0.267876 -1.89529 -91.9558 -43.6172 74.1322 -8.09051 18.8522 -72.7247 8.98222 15.3775 -92.577 19.5369 2.3456 -0.550797 -29.0855 -14.4225 -6.06682 2.95277 -16.6802 -19.824 
81.1915 90.0588 -20.3606 95.2437 -20.3936 90.5186 -173.197 8.16813 95.1959 -37.3273 24.4754 -0.28711 66.3453 9.07257 18.5371 -153.527 28.1578 -97.5938 171.731 20.5299 76.2921 -26.6533 -13.221 0.12519 57.6601 4.65241 -9.23661 31.2371 -0.69896 -2.02346 0.561988 7.43095 -89.3744 12.0044 1.41251 1.09423 0.333852 1.45929 1.031 -22.2012 1.01839 1.46813 -2.18858 1.01836 1.46813 91.0445 -49.8365 -99.2562 1.31417 21.5109 -30.6246 -20.8948 19.9307 -52.0357 -4.66711 -0.294472 -1.79379 -91.8286 -43.5923 74.3282 -8.30001 17.9514 -72.6514 10.6078 15.2275 -92.2368 18.0486 2.1603 -1.15206 -28.9523 -14.2971 -5.84605 3.63986 -16.5995 -19.398 
81.3302 90.1274 -20.4115 94.8462 -22.8162 89.9412 -172.533 7.52516 94.7332 -35.9478 22.182 -1.26871 66.6608 9.01055 18.3097 -151.963 29.9446 -97.0037 172.812 21.7823 76.2431 -27.1922 -14.381 -0.548276 57.2122 4.47716 -8.46964 31.0631 -0.620189 -1.95215 0.588362 7.39144 -89.343 12.0827 1.48012 1.14825 0.412151 1.52919 1.08199 -22.1229 1.0666 1.53996 -2.11026 1.06662 1.53996 91.5649 -48.4358 -98.7455 3.95778 19.7618 -31.5048 -20.9961 17.9547 -53.3651 -5.44227 -0.466099 -1.52421 -92.2823 -44.2216 73.7842 -7.42691 16.0765 -72.6559 9.14053 14.998 -90.5532 18.5219 2.24239 -1.86583 -28.0202 -13.9304 -4.76874 3.89155 -16.0258 -18.4267 
